<?xml version="1.0" standalone="no"?>
<!DOCTYPE svg PUBLIC "-//W3C//DTD SVG 20010904//EN"
 "http://www.w3.org/TR/2001/REC-SVG-20010904/DTD/svg10.dtd">
<svg version="1.0" xmlns="http://www.w3.org/2000/svg"
 width="256.000000pt" height="256.000000pt" viewBox="0 0 256.000000 256.000000"
 preserveAspectRatio="xMidYMid meet">
<metadata>
Created by potrace 1.11, written by Peter Selinger 2001-2013
</metadata>
<g transform="translate(0.000000,256.000000) scale(0.100000,-0.100000)"
fill="#000000" stroke="none">
<path d="M1106 2549 c-265 -39 -522 -165 -716 -351 -191 -183 -328 -444 -374
-713 -20 -116 -14 -345 12 -465 72 -333 259 -612 537 -800 292 -197 627 -259
1007 -187 51 10 210 68 272 99 359 180 605 498 688 888 26 125 32 324 13 450
-83 537 -488 959 -1023 1067 -89 17 -330 25 -416 12z m424 -460 c35 -36 48
-90 37 -155 -19 -120 -152 -193 -292 -162 -122 28 -154 185 -57 285 46 48 80
64 157 72 73 8 119 -4 155 -40z m-74 -560 c31 -34 28 -141 -7 -274 -16 -60
-31 -117 -33 -125 -2 -9 -22 -86 -45 -171 -45 -170 -49 -207 -26 -216 21 -8
96 22 155 62 l50 33 25 -31 25 -32 -57 -54 c-78 -74 -207 -156 -312 -199 -68
-28 -100 -36 -152 -36 -76 -1 -99 13 -116 67 -18 59 -10 114 46 342 46 186 82
333 86 356 8 38 -10 41 -81 14 -38 -14 -85 -35 -104 -46 l-34 -21 -23 27 c-13
14 -23 30 -23 35 0 23 172 141 299 205 164 83 287 108 327 64z"/>
</g>
</svg>
